<svg width="506" height="452" viewBox="0 0 506 452" fill="none" xmlns="http://www.w3.org/2000/svg">
<path d="M-193.5 149C121.828 149 377 373.763 377 650.5C377 927.237 121.828 1152 -193.5 1152C-508.828 1152 -764 927.237 -764 650.5C-764 373.763 -508.828 149 -193.5 149Z" stroke="#AE0D0D" stroke-width="4"/>
<path d="M-197 103C111.38 103 361 327.724 361 604.5C361 881.276 111.38 1106 -197 1106C-505.38 1106 -755 881.276 -755 604.5C-755 327.724 -505.38 103 -197 103Z" stroke="#AE0D0D" stroke-width="4"/>
<path d="M-805.938 769.975C-851.664 439.872 -614.18 134.15 -275.381 87.2195C63.4189 40.2886 375.064 269.944 420.79 600.047C466.517 930.151 229.033 1235.87 -109.767 1282.8C-448.566 1329.73 -760.211 1100.08 -805.938 769.975Z" stroke="#AE0D0D" stroke-width="4"/>
</svg>
