<svg width="575" height="316" viewBox="0 0 575 316" fill="none" xmlns="http://www.w3.org/2000/svg">
<path d="M554 -689C859.045 -689 1106 -464.295 1106 -187.5C1106 89.2952 859.045 314 554 314C248.955 314 2 89.2952 2 -187.5C2 -464.295 248.955 -689 554 -689Z" stroke="#AE0D0D" stroke-width="4"/>
<path d="M554 -740C859.045 -740 1106 -515.295 1106 -238.5C1106 38.2952 859.045 263 554 263C248.955 263 2 38.2952 2 -238.5C2 -515.295 248.955 -740 554 -740Z" stroke="#AE0D0D" stroke-width="4"/>
<path d="M629.5 -631C947.282 -631 1204 -430.435 1204 -184C1204 62.4348 947.282 263 629.5 263C311.718 263 55 62.4348 55 -184C55 -430.435 311.718 -631 629.5 -631Z" stroke="#AE0D0D" stroke-width="4"/>
</svg>
